<?xml version="1.0" encoding="utf-8"?>
<!-- Generator: Adobe Illustrator 22.0.1, SVG Export Plug-In . SVG Version: 6.00 Build 0)  -->
<svg version="1.1" id="Layer_1" xmlns="http://www.w3.org/2000/svg" xmlns:xlink="http://www.w3.org/1999/xlink" x="0px" y="0px"
	 viewBox="0 0 807.1 788.2" style="enable-background:new 0 0 807.1 788.2;" xml:space="preserve">
<style type="text/css">
	.st0{fill:#54BAD8;}
	.st1{fill:#E2E2E2;}
	.st2{fill:#616161;}
	.st3{fill:#949494;}
	.st4{fill:#C06D72;}
	.st5{fill:#E8D692;}
	.st6{fill:none;stroke:#616161;stroke-width:4;stroke-linecap:round;stroke-miterlimit:10;}
	.st7{fill:none;stroke:#E2E2E2;stroke-width:4;stroke-linecap:round;stroke-miterlimit:10;}
</style>
<title>WAM logo without text</title>
<g id="work">
	<path id="sky2" class="st0" d="M692,247.6l-22.4,9.4l-7.3-17.2l2.9,0.7C674.2,242.8,683.2,245.1,692,247.6z"/>
	<path id="sky" class="st0" d="M635.9,269.8l-2.8-6.6l-10.2-24.2c-0.3-0.6,0-1.4,0.6-1.7h0.1l9.6-4l0,0l0.3-0.1
		c-45-9.8-80.3-14.4-118.6-18.6c-65.8,9.1-120.9,27.8-154,41.8c-24.7,10.5-39.9,19.1-58.6,26.4c12.1,3.5,21.4,13.1,24.7,25.3
		c-5.7-15.8-23.1-24-38.9-18.4s-24,23.1-18.4,38.9s23.1,24,38.9,18.4c5.8-2.1,10.9-5.9,14.5-11c-10.6,16.9-32.8,22.1-49.8,11.5
		c-16.5-10.3-21.9-31.7-12.2-48.6c1-1.7,2.2-3.3,3.4-4.8c-11.9,2.6-50.2,10.3-101,9.6c-7.6-0.1-23.4-0.4-41.6-2.4l-2.5-0.3
		c-1.2-0.1-2.4-0.3-3.6-0.5c-6.9-0.9-14.5-2.1-22.9-3.8c-7.9-1.6-16.4-3.6-25.5-6.2c-21.8-6.2-42.9-14.3-63.3-24.2
		c-2.5,17.2-3.9,34.5-4.2,51.9c0,2.2-0.1,4.5-0.1,6.7c0,7.6,0.2,15.1,0.6,22.6c0.1,2.8,0.3,5.5,0.5,8.2c0.3,4.6,0.8,9.1,1.3,13.7
		l0.1,1.1l2.7,3.8l-1.7,4.2c0,0.1,0,0.3,0,0.4c0.2,1.7,0.5,3.4,0.7,5.1c0.7,4.5,1.4,8.9,2.2,13.3c0.6,3.1,1.2,6.2,1.8,9.2
		c1.1,4.8,2.2,9.7,3.4,14.5c2.2,8.9,4.6,17.8,7.4,26.5l0.1,0.4c2.8,8.7,5.9,17.3,9.2,25.7c1.6,4.2,3.4,8.3,5.2,12.4l23.9-10.1
		l14,33.2l33.2-14l-3.6-8.6l-9.9-23.5l-0.5-1.2l1.2-0.5l0,0l30.8-13l1.2-0.5l0.5,1.2l0,0l13,30.8l0,0l0.5,1.2l1.2-0.5l30.8-13l0,0
		l1.2-0.5l-0.5-1.2l-13-30.8l-0.5-1.2l1.2-0.5l0,0l3.4-1.4l10.3-4.4l17.1-7.2c0.7-0.3,1.4,0,1.7,0.7c0,0,0,0,0,0l0,0l13,30.8l0,0
		l0.5,1.2l1.2-0.5l30.8-13l0,0l1.2-0.5l-0.5-1.2l-13-30.8c-0.3-0.7,0-1.4,0.7-1.7c0,0,0,0,0,0l0,0l30.8-13c0.7-0.3,1.4,0,1.7,0.7
		c0,0,0,0,0,0l0,0l13,30.8l0,0l0.5,1.2l1.2-0.5l30.8-13l0,0l1.2-0.5l-0.5-1.2l-13-30.8c-0.3-0.7,0-1.4,0.7-1.7c0,0,0,0,0,0l0,0
		l30.8-13c0.7-0.3,1.4,0,1.7,0.7c0,0,0,0,0,0l0,0l13,30.8l0,0l0.5,1.2l1.2-0.5l30.8-13l0,0l1.2-0.5l-0.5-1.2l-13-30.8
		c-0.3-0.7,0-1.4,0.7-1.7c0,0,0,0,0,0l0,0l30.8-13c0.7-0.3,1.4,0,1.7,0.7c0,0,0,0,0,0l0,0l13,30.8l0,0l0.5,1.2l1.2-0.5l30.8-13l0,0
		l1.2-0.5l-0.5-1.2l-13-30.8c-0.3-0.7,0-1.4,0.7-1.7c0,0,0,0,0,0l0,0l30.8-13c0.7-0.3,1.4,0,1.7,0.7c0,0,0,0,0,0l0,0l13,30.8l0,0
		l0.5,1.2l1.2-0.5l30.8-13l0,0l1.2-0.5l-0.5-1.2l-13.5-32l1.2-0.5l30.8-13c0.7-0.3,1.4,0,1.7,0.7c0,0,0,0,0,0l0,0l13,30.8l0,0
		l0.5,1.2l1.2-0.5l30.8-13l0,0l1.2-0.5l-0.5-1.2L558,270.7l-1.5-3.6c-0.3-0.7,0-1.4,0.7-1.7c0,0,0,0,0,0l0,0l30.8-13
		c0.7-0.3,1.4,0,1.7,0.7c0,0,0,0,0,0l0,0l9.1,21.5l3.9,9.3l0,0l0.5,1.2l1.2-0.5l30.8-13l0,0l1.2-0.5L635.9,269.8z"/>
	<g id="wikiglobe">
		<path class="st1" d="M803.9,273.8c-71.2-27.9-150.6-49.2-248.6-59.8c-8.8-0.9-18.4-2.1-28.1-3.3c39.1-6.8,46.6-7.9,92.1-12.1
			c41.9-3.9,84.3,0.1,118.5,6c-83.5-16-143.3-14.1-188.5-6.6c-18.5,3.1-33.8,6.6-54.7,11.4c-110.6,25.5-178,55.3-212.3,66.6
			c-58.7,19.4-139.5,33.2-276.4-20.4l2-4.4l-0.7-2.6c0.7-3.7,1.5-7.4,2.3-11.1c0.2-1,0.5-2.1,0.7-3.1c0.3-1.4,0.7-2.8,1-4.2
			c0.2-0.9,0.4-1.8,0.7-2.8l0.4-1.7l0.5-2.1c0.3-1.1,0.6-2.1,0.8-3.2c0.1-0.4,0.2-0.9,0.3-1.3c0.2-0.9,0.5-1.8,0.7-2.6
			c0.2-0.7,0.4-1.5,0.6-2.2s0.5-1.7,0.7-2.5l0.6-2.1l1.2-4.1l1.1-3.6c0.6-1.8,1.2-3.6,1.8-5.4c0.5-1.5,1-3.1,1.6-4.6
			c1-3,2.1-6.1,3.3-9.1s2.3-6,3.5-9c8.2-20.2,18-39.8,29.3-58.4l5.4-3l0.6,0.3c0.9-0.7,1.8-1.2,2.8-1.7l0.6-0.2
			c0,0,9.3-15.7,12.8-20.7c0,0,4.3-2.8,5.9-3.2c0.6-0.1,1.1,0.2,1.5,0.6c0,0,3.9-3.4,13.4-16.3l0.1-0.1c-0.5-0.3-0.8-0.8-1-1.4
			c0.2-2,0.6-3.9,1.4-5.7c0.2-0.5,0.5-0.9,0.9-1.2c0,0,13.6-16.1,24.9-25.6c1.6-1.1,3.4-1.8,5.4-2c0,0,11.6-4.9,25.8-17.3
			c0,0,0.4-2.3,3.8-6.8s11.5-9.2,17.6-10.6s7.1-0.3,7.1-0.3l0.5,0.5l4.1,6.1c3.6-1.9,7.3-3.5,11.2-4.8c6.7-2.3,7.8-2.1,7.8-2.1
			l6.5,10.6l-7.8,15.8c0,0-5.1,11.2-13.1,17.3c-2.7,1.4-5.9,1.8-8.9,1c-3.1-0.7-6.3,0.3-8.5,2.6l-1.3,1.1c0.9-0.2,1.8-0.5,2.7-0.8
			c0.9,0.4,1.6,1,2.2,1.8c0.9,1.3,7.2,9.3,7.2,9.3c-0.2,5.3-1.4,10.5-3.3,15.3c-3.3,8.7-11.6,22.9-11.6,22.9s-5.8,11.3-8.5,17.8
			s-4.1,14-3.9,17.9c0,0,1.5,0.5,5.6-1.6c5.2-2.6,8.6,0.2,8.6,0.2c2.9,2.1,5.7,4.5,8.2,7c2.1,2.3,6.4,14,1.6,25.5
			c-2.4,5.4-6.2,10.1-10.9,13.6c0,0-1.7,2.6-12.1,1.4c-2.9-0.3-4.6-2.2-10.9-1.6c-5.8,0.6-9.3,5.7-9.7,6.4l0.1-0.1
			c-4.9,7.1-8.4,17.1-9,19.1l-0.1,0.4l-0.4,1.3c0,0-1.9,4-2.3,13.9c-0.4,10.2,2.2,24.6,2.2,24.6s62.3-11,78.2-0.4l4.6,4.2
			c0.2,1,0.1,2-0.3,3c-0.6,1.6-3,5.3-7.8,8.8c-4.8,3.5-9.7,12.5-2.5,18.2c8.2,6.5,13.4,6.1,27.1,3.7c8.3-1.4,16.2-4.9,22.9-10
			c0,0,7.7-5.7,6.2-12.9c-0.9-4.3-4-7.8-8-9.4c0,0-5.2-3.4-1.1-9.8c0,0,1.1-5.5,20.2-10.4c27.5-6.9,55.4-12.2,83.6-15.9l3.3-1.1l0,0
			c54.3-6.9,100.9-18.9,179.2-24c66-4.3,142-3.6,249.1,16c0.2,0.6,0.4,1.3,0.6,1.9c0.3,1.1,0.7,2.2,1,3.3c0.5,1.4,0.9,2.9,1.3,4.4
			l-1,3.8l3.1,4c1.4,5.2,2.7,10.5,3.9,15.8c0.2,1.1,0.5,2.1,0.7,3.2c0.7,3.2,1.3,6.4,2,9.6c0.2,1.1,0.4,2.1,0.6,3.2
			c0.2,0.9,0.3,1.9,0.5,2.8c0.1,0.7,0.2,1.3,0.3,2c0.2,1.1,0.4,2.1,0.5,3.2s0.4,2.4,0.6,3.6s0.3,2.3,0.5,3.4s0.3,2.3,0.5,3.4
			s0.3,2.2,0.4,3.3C803.9,273.6,803.9,273.7,803.9,273.8z"/>
		<g id="g4765">
			<path class="st2" d="M331.6,130.3c-4.1,5.9-8.1,12.2-12.1,18.9c-12.5,21-22.6,43.4-30.1,66.7c-3,0-6,0-9,0
				c-49,0-97.8-4.4-146-13.3l0,0c0.6-2,4-11.9,8.9-19c0,0,4.8-1.4,10.8-2.8s9.8-2,9.8-2c9.7,1.1,11.9-1.1,12.1-1.4
				c7.6-0.2,15.1-0.7,22.7-1.6c13.3-1.7,28.2-7.1,28.2-7.1s12.3-4.5,16.6-9.3h0.1c-3.1-2.7-5.9-5.6-8.4-8.9c0,0-2.3-4.4,0.2-8.2
				s6.6-8,18.5-13s18.6-4.1,18.6-4.1c3,0.1,5.9,1.4,8,3.6c2.1,2.4,3.8,5.1,5.1,8c0.1,1.7-0.2,3.4-0.9,5c-1.1,2-1.2,2.2-1.2,2.2
				c1,0,2,0,3-0.1C298.5,143.6,314.1,140.5,331.6,130.3z"/>
		</g>
		<path id="path4135" class="st3" d="M192.2,6.9l-4.2-6l-0.5-0.5c0,0-1-1.1-7.1,0.3l-0.9,0.2c0,0,3-0.8,1.3,1.5s-4.4,3.9-9.3,9.1
			s-3.3,6.4-0.1,5.3S180.9,12.9,192.2,6.9L192.2,6.9z"/>
		<path class="st3" d="M217.6,10.7l-7.9,15.8c0,0-5.1,11.3-13.1,17.3c-2.7,1.4-5.9,1.8-8.9,1c-3.1-0.7-6.3,0.3-8.5,2.6l-1.3,1.1
			c0.9-0.2,1.8-0.5,2.7-0.8c0.9,0.4,1.6,1,2.1,1.8c0.9,1.3,7.2,9.3,7.2,9.3c-0.2,5.3-1.4,10.5-3.3,15.4
			c-3.3,8.7-11.6,22.9-11.6,22.9s-5.8,11.3-8.5,17.8s-4.1,14-3.9,17.9c0,0,1.5,0.5,5.6-1.6c5.2-2.6,8.6,0.2,8.6,0.2
			c2.9,2.1,5.7,4.5,8.2,7c2.1,2.3,6.4,14,1.7,25.5c0,0-0.2,0.6-0.8,1.6c0,0.1-0.1,0.1-0.1,0.1l-0.1,0.2l-0.1,0.2
			c0,0.1-0.1,0.1-0.1,0.2c0,0.1-0.1,0.1-0.1,0.2c0,0-0.1,0.1-0.1,0.2c0,0.1-0.1,0.2-0.1,0.2s0,0.1,0,0.1c-0.1,0.2-0.2,0.4-0.4,0.6
			l0,0l-0.2,0.3c0,0,0,0.1-0.1,0.1c-0.1,0.1-0.1,0.2-0.2,0.3c0,0,0,0,0,0.1l-0.2,0.4c0,0,0,0,0,0.1l-0.9,1.3l0,0
			c-0.1,0.1-0.2,0.3-0.3,0.4l-0.1,0.1c-0.1,0.1-0.2,0.3-0.3,0.4l-0.1,0.1l-0.3,0.4c-1.8,2.3-3.9,4.4-6.3,6.1l0,0l0,0l0,0l0,0
			c0,0,0,0-0.1,0.1l0,0l-0.1,0.1l0,0c0,0,0,0.1-0.1,0.1l0,0l-0.1,0.1l0,0c0,0-0.1,0-0.1,0.1l0,0l-0.1,0.1l0,0l-0.1,0.1l0,0l-0.1,0.1
			c0,0,0,0-0.1,0l-0.2,0.1H175l-0.2,0.1h-0.1l-0.2,0.1h-0.1l-0.2,0.1h-0.1c-0.1,0-0.2,0.1-0.3,0.1l0,0c-0.2,0.1-0.5,0.1-0.8,0.2
			l-0.4,0.1h-0.1c-0.1,0-0.2,0.1-0.4,0.1h-0.5h-0.4h-0.2h-0.4h-0.2h-0.4h-1.9h-0.3h-0.8h-0.5h-0.3H166h-0.3l-0.6-0.1h-0.3l-0.9-0.1
			c-2.9-0.3-4.6-2.2-10.9-1.6c-5.8,0.6-9.3,5.7-9.7,6.4l0.1-0.1c-5.5,7.9-9.1,19.5-9.1,19.5l-0.4,1.3c0,0-1.9,4-2.3,13.9
			c0,0.3,0,0.5,0,0.8v0.1c0,0.2,0,0.5,0,0.8v1.9c0,0.3,0,0.5,0,0.8v0.1c0,0.3,0,0.5,0,0.8c0,0.1,0,0.1,0,0.2c0,0.3,0,0.5,0,0.8
			c0,0.1,0,0.1,0,0.2c0,0.3,0,0.5,0,0.8c0,0,0,0.1,0,0.1c0,0.3,0,0.5,0,0.8c0,0,0,0.1,0,0.1c0,0.3,0,0.5,0.1,0.8c0,0.1,0,0.1,0,0.2
			c0,0.3,0,0.5,0.1,0.8c0,0.1,0,0.1,0,0.2c0,0.3,0,0.5,0,0.8c0,0.1,0,0.1,0,0.2c0,0.3,0,0.5,0.1,0.8v0.1c0,0.3,0.1,0.5,0.1,0.7
			c0,0.1,0,0.1,0,0.1c0,0.3,0.1,0.5,0.1,0.7c0,0.1,0,0.1,0,0.2c0,0.2,0.1,0.5,0.1,0.7c0,0.1,0,0.1,0,0.2c0,0.2,0.1,0.5,0.1,0.7
			c0,0,0,0.1,0,0.1c0,0.2,0.1,0.4,0.1,0.6c0,0,0,0.1,0,0.1c0,0.2,0.1,0.5,0.1,0.7c0,0,0,0.1,0,0.1c0,0.2,0,0.4,0.1,0.6
			c0,0.1,0,0.1,0,0.2c0,0.2,0.1,0.4,0.1,0.6c0,0,0,0.1,0,0.1c0,0.2,0.1,0.4,0.1,0.6l0,0c0,0.2,0.1,0.4,0.1,0.6c0,0.1,0,0.1,0,0.1
			c0,0.2,0.1,0.4,0.1,0.6s0,0.1,0,0.1s0.1,0.4,0.1,0.5v0.1c0,0.2,0.1,0.4,0.1,0.5l0,0c0,0.2,0.1,0.3,0.1,0.5s0,0,0,0s0,0.3,0.1,0.4
			l0,0c0,0.1,0,0.3,0.1,0.4l0,0c0.1,0.5,0.3,1.4,0.3,1.5l-10.5,2.3h-0.1l-5.3-3.4c-1.3-7.5-2.1-15.1-2.3-22.8
			c-0.2-11.2,3.6-26.3,8.1-34.8s10.2-14.3,15-17.2s12.6-0.6,12.6-0.6c2.4,0.9,5,1.4,7.6,1.3c2.8,0,5.5-0.9,7.8-2.5
			c8-5.7,8.1-17.2,8.1-19.3s-0.8-14.3-6.6-11.3c-3.3,1.8-6.9,2.7-10.6,2.8c-4.6-0.1-8.4-3.5-9.2-8c-1.1-5.3,1.6-14.7,3.7-20.7l7.9-4
			l-4.8-3.5c1.8-3.6,5.5-11.1,8.5-16.2c11.7-20.2,12.7-30.3,12.9-31s0.4-3.1-0.5-3.2s-3,1.1-6,3.7s-7.9,5.1-11.2,3.2
			s-2.6-8.2,3.6-16.6s13.2-10.7,15.4-11.2c2.4-0.5,4.9-0.3,7.2,0.7c2.3,1.1,5.3-3.3,5.3-3.3c7.5-9.4,13.6-24.4,13.6-24.4
			c6.7-2.3,7.8-2,7.8-2L217.6,10.7z"/>
		<path class="st3" d="M356.8,212.1l-2.2,4.9c0,0,0,0,0-0.1L356.8,212.1z"/>
		<path class="st3" d="M356.8,212.1l-2.2,4.9l0,0c-56.1,7.4-79.7,14.9-87.6,16.9s-10,6.2-10.8,7.2s0.6,1.3,0.6,1.3
			c2,0.6,3.8,1.9,5.1,3.5c0,0,11.1,13.4-0.1,24.6c-10.8,10.8-22.1,13.3-22.1,13.3s-17.2,5.9-32.3,2.7s-19.3-15-19.1-19
			c0.2-4.9,2.1-9.6,5.5-13.1c4.1-4.6,5.2-5.3,5.2-5.3s2.8-2.2,3.3-3.3c0.6-1.4-3.2-1.9-3.2-1.9c-8.2-1-27.7-0.8-46.1,1.1
			c-11.4,1.1-22,2.9-28.4,4l-1.7-3.7v-0.1l10.6-2.3c0,0,62.4-11,78.2-0.5l4.6,4.2c0.2,1,0.1,2-0.3,3c-0.6,1.6-3,5.3-7.8,8.8
			s-9.7,12.5-2.5,18.2c8.2,6.5,13.4,6.1,27.1,3.7c8.3-1.4,16.2-4.9,22.9-10c0,0,7.7-5.7,6.2-12.9c-0.9-4.3-4-7.8-8-9.4
			c0,0-5.2-3.4-1.1-9.8c0,0,1.1-5.5,20.2-10.4C300.8,221,328.7,215.7,356.8,212.1z"/>
	</g>
	<path id="silk" class="st4" d="M803.9,273.6c-0.1-1.1-0.3-2.2-0.4-3.3s-0.3-2.3-0.5-3.4s-0.3-2.3-0.5-3.4s-0.4-2.4-0.6-3.6
		s-0.3-2.1-0.5-3.2c-0.1-0.7-0.2-1.3-0.3-2c-0.2-0.9-0.3-1.9-0.5-2.8s-0.4-2.1-0.6-3.2c-0.6-3.2-1.3-6.4-2-9.6l-0.2-0.8
		c-0.2-0.8-0.3-1.6-0.5-2.3c-0.7-3-1.4-5.9-2.1-8.8c-0.6-2.3-1.2-4.6-1.8-6.9l-3.1-4l1-3.8c-0.4-1.5-0.8-2.9-1.3-4.4
		c-0.3-1.1-0.7-2.2-1-3.3c-0.2-0.6-0.4-1.3-0.6-1.9c-107.1-19.6-183.1-20.3-249.1-16c-22,1.4-41.6,3.4-59.5,5.7
		c-12.2,1.5-23.7,3.2-34.7,4.9c-30,4.7-56.5,9.8-85,13.4l0,0l-3.6,0.4c-22.3,2.8-44.8,4.3-67.3,4.5c-3,0-6,0-9,0
		c-49,0-97.8-4.4-146-13.3l0,0c-40.1-7.5-75.5-17.6-105.1-28.7c-1.2,3-2.4,6-3.5,9c-1.1,3-2.2,6.1-3.3,9.1c-0.5,1.5-1.1,3-1.6,4.6
		c-0.6,1.8-1.2,3.6-1.8,5.4l-1.1,3.5l-1.2,4.1l-0.6,2.1c-0.3,0.8-0.5,1.7-0.7,2.5s-0.4,1.5-0.6,2.2c-0.3,0.9-0.5,1.8-0.7,2.6
		c-0.1,0.4-0.2,0.9-0.3,1.3c-0.3,1.1-0.6,2.1-0.8,3.2l-0.5,2.1l-0.4,1.7c-0.2,0.9-0.5,1.8-0.7,2.8c-0.3,1.4-0.7,2.8-1,4.2
		c-0.2,1-0.5,2.1-0.7,3.1c-0.8,3.7-1.6,7.4-2.3,11.1l0.7,2.6l-2,4.4c136.9,53.6,217.7,39.8,276.4,20.4
		c29.3-9.7,82.6-32.8,166.2-55.1c12-3.2,24.7-6.4,38-9.6l8.1-1.9c20.8-4.8,36.2-8.3,54.7-11.4c45.3-7.5,105.1-9.4,188.5,6.6
		c-34.3-5.9-76.7-9.8-118.5-6c-45.5,4.2-53,5.3-92.1,12.1c9.7,1.1,19.3,2.3,28.1,3.3c37.1,3.9,74,9.9,110.4,17.8
		c47.1,10.3,93.3,24.3,138.2,42C803.9,273.7,803.9,273.6,803.9,273.6z"/>
	<g id="desert">
		<path class="st5" d="M730.9,88.8c-5.6,7.6-14.3,17-27.2,22.9c-19.6,8.9-38.7,8.5-57.9,3.7c-36.3-9-73.2-33.1-115.5-38.4
			c-52-6.5-106.9,9.1-241,139c23.7-0.3,47.3-2,70.8-5c54.3-6.9,100.9-18.9,179.2-24c66-4.3,142-3.6,249.1,16
			C775.3,162.1,755.9,123.6,730.9,88.8z"/>
		<path class="st5" d="M729.8,87.2c-7.2,6.3-12.8,16.3-30.8,22.5c-18.3,6.4-38.8,3.9-48.8,2.7c-8.9-1.1-9.8-1.9-44.4-15.8
			c-11-4.4-25.3-9.6-44.9-15.4c-5.8-1.7-19-4.6-22.1-5.5c6.6-6.1,75.8-42.2,103.5-40.1C666.5,37.4,721.8,80.1,729.8,87.2z"/>
		<path class="st5" d="M441.7,87c-20,9.8-38.9,21.9-56.2,36c-4,3.3-15.8,14.3-39.5,36.4c-16.8,15.7-24.8,22.6-32.6,31.3
			c-2,2.2-16.8,20.9-24,25.3c5.9-18.4,13.4-36.3,22.7-53.3c10.2-18.9,21.6-39.4,43.7-58.7c14.4-12.6,29.4-25.6,51.3-26.3
			C422.3,77.1,434.6,82.8,441.7,87z"/>
	</g>
	<g id="architecture">
		<path class="st1" d="M189.5,499.7l-88.2-12.5l-41.6-5.9l-11.5-1.6l-18.4-2.6c-0.5-1.2-1-2.4-1.4-3.6L157,420.7l4.6,11.3l10.3,25.2
			L189.5,499.7z"/>
		<path class="st3" d="M157,420.7L28.3,473.5c-3.3-8.4-6.4-17-9.2-25.7l-0.1-0.4L121,405.5l25.4-10.5L157,420.7z"/>
		<path class="st2" d="M122,335.5l-17,31.1L8.3,406.4c-0.6-3.1-1.2-6.1-1.8-9.2c-0.8-4.4-1.5-8.8-2.2-13.3L122,335.5z"/>
		<path class="st1" d="M121,405.5L19,447.5c-2.8-8.7-5.3-17.5-7.4-26.5c-1.2-4.8-2.3-9.7-3.3-14.6c-0.6-3.1-1.2-6.1-1.8-9.2l95.1-39
			l3.5,8.5L121,405.5z"/>
		<path class="st3" d="M122,335.5L4.3,383.9c-0.3-1.7-0.5-3.4-0.7-5.1c0-0.1,0-0.3,0-0.4l1.7-4.2l-2.7-3.8l-0.1-1.1
			c-0.5-4.5-0.9-9.1-1.3-13.7c-0.2-2.7-0.4-5.5-0.5-8.2L67.5,320l10-4.1l-2.5-6.1c-0.5-1.2,0.1-2.5,1.2-3c0,0,0,0,0,0l0,0l1.5-0.6
			c1.2-0.5,2.5,0.1,3,1.2c0,0,0,0,0,0l2.5,6.1c1.9,5.1,5.3,9.5,9.8,12.7c0.6,0.5,1.3,0.9,2,1.3c9.5,5.4,17.3,3.9,20.9,2.5l0.3-0.1
			c1.1-0.5,2.5-0.3,3.4,0.6c0.4,0.3,0.7,0.8,0.9,1.2L122,335.5z"/>
	</g>
	<path id="crescent" class="st1" d="M323.2,335.9c-10.6,16.9-32.8,22.1-49.8,11.5c-16.5-10.3-21.9-31.7-12.2-48.6
		c1-1.7,2.2-3.3,3.4-4.8l2.3-0.5c12.1-2.7,23.9-6.3,35.4-10.8c12.1,3.5,21.4,13.1,24.7,25.3c-5.7-15.8-23.1-24-38.9-18.4
		s-24,23.1-18.4,38.9s23.1,24,38.9,18.4C314.6,344.7,319.6,340.9,323.2,335.9L323.2,335.9z"/>
	<g id="wall">
		<polygon class="st3" points="57.3,475.9 59.6,481.4 48.1,479.7 		"/>
		<path id="wall-2" class="st3" d="M807.1,324.8c0,8.8-0.3,17.5-0.8,26.1c0,0.2-0.1,0.4-0.2,0.6l-1.9,3.2c-0.2,0.4-0.2,0.8-0.1,1.2
			l1.4,3.5c0.1,0.2,0.1,0.4,0.1,0.6c-4,47-16.3,92.9-36.3,135.5c-53.6,114.8-159.7,200.1-287.5,225.3c-0.7,0.1-1.4-0.3-1.6-1.1
			c-0.1-0.3,0-0.7,0.2-1l99.8-156.9c0-0.1,0.1-0.1,0.1-0.2c0.7-1.7,1.2-3.3,0.7-4.5l0,0c-0.3-0.7-0.1-1.5,0.6-1.8
			c0.2-0.1,0.5-0.2,0.7-0.1l-393-55.5L102,487.4c-0.5-0.1-0.8-0.4-1-0.8l-9.9-23.5c-0.3-0.7,0-1.4,0.7-1.7c0,0,0,0,0,0l0,0l30.8-13
			c0.7-0.3,1.4,0,1.7,0.7c0,0,0,0,0,0l0,0l13,30.8l0,0c0.3,0.7,1.1,1,1.7,0.7c0,0,0,0,0,0l30.8-13l0,0c0.7-0.3,1-1.1,0.7-1.7
			c0,0,0,0,0,0l-13-30.8c-0.3-0.7,0-1.4,0.7-1.7c0,0,0,0,0,0l0,0l3.4-1.4l10.3-4.4l17.1-7.2c0.7-0.3,1.4,0,1.7,0.7c0,0,0,0,0,0l0,0
			l13,30.8l0,0c0.3,0.7,1.1,1,1.7,0.7c0,0,0,0,0,0l30.8-13l0,0c0.7-0.3,1-1.1,0.7-1.7c0,0,0,0,0,0l-13-30.8c-0.3-0.7,0-1.4,0.7-1.7
			c0,0,0,0,0,0l0,0l30.8-13c0.7-0.3,1.4,0,1.7,0.7c0,0,0,0,0,0l0,0l13,30.8l0,0c0.3,0.7,1.1,1,1.7,0.7c0,0,0,0,0,0l30.8-13l0,0
			c0.7-0.3,1-1.1,0.7-1.7c0,0,0,0,0,0l-13-30.8c-0.3-0.7,0-1.4,0.7-1.7c0,0,0,0,0,0l0,0l30.8-13c0.7-0.3,1.4,0,1.7,0.7c0,0,0,0,0,0
			l0,0l13,30.8l0,0c0.3,0.7,1.1,1,1.7,0.7c0,0,0,0,0,0l30.8-13l0,0c0.7-0.3,1-1.1,0.7-1.7c0,0,0,0,0,0l-13-30.8
			c-0.3-0.7,0-1.4,0.7-1.7c0,0,0,0,0,0l0,0l30.8-13c0.7-0.3,1.4,0,1.7,0.7l0,0l13,30.8l0,0c0.3,0.7,1.1,1,1.7,0.7c0,0,0,0,0,0
			l30.8-13l0,0c0.7-0.3,1-1.1,0.7-1.7c0,0,0,0,0,0l-13-30.8c-0.3-0.7,0-1.4,0.7-1.7c0,0,0,0,0,0l0,0l30.8-13c0.7-0.3,1.4,0,1.7,0.7
			l0,0l13,30.8l0,0c0.3,0.7,1.1,1,1.7,0.7c0,0,0,0,0,0l30.8-13l0,0c0.7-0.3,1-1.1,0.7-1.7c0,0,0,0,0,0l-13.5-32l1.2-0.5l30.8-13
			c0.7-0.3,1.4,0,1.7,0.7l0,0l13,30.8l0,0c0.3,0.7,1.1,1,1.7,0.7c0,0,0,0,0,0l30.8-13l0,0c0.7-0.3,1-1.1,0.7-1.7c0,0,0,0,0,0
			L558,270.7l-1.5-3.6c-0.3-0.7,0-1.4,0.7-1.7c0,0,0,0,0,0l0,0l30.8-13c0.7-0.3,1.4,0,1.7,0.7l0,0l9.1,21.5l3.9,9.3l0,0
			c0.3,0.7,1.1,1,1.7,0.7c0,0,0,0,0,0l30.8-13l0,0c0.7-0.3,1-1.1,0.7-1.7c0,0,0,0,0,0l-2.8-6.6L622.9,239c-0.3-0.6,0-1.4,0.6-1.7
			h0.1l9.6-4l0,0c0.2-0.1,0.5-0.1,0.8-0.1c7.9,1.7,16.2,3.7,24.8,5.8l2.9,0.7c0.4,0.1,0.7,0.4,0.9,0.8l6.5,15.4
			c0.3,0.7,1.1,1,1.7,0.7c0,0,0,0,0,0l0,0l20.8-8.7c0.3-0.1,0.6-0.1,0.9-0.1c38,10.5,75.4,23.2,112,37.9c0.5,0.2,0.8,0.6,0.8,1.1
			C806.5,299.3,807.1,312,807.1,324.8z"/>
	</g>
	<path id="table" class="st2" d="M580.3,561.8L478.8,721.4c-24.8,4.7-50,7-75.3,7c-137.1,0-258.3-68.4-331.2-172.9
		c-5-7.1-9.7-14.4-14.2-21.8l-0.5-1.7l-0.3-1.2l-1.6-1.2c-8.3-14.1-15.8-28.7-22.3-43.7c-1.3-2.9-2.5-5.8-3.7-8.8l18.4,2.6l11.5,1.6
		l41.6,5.9l88.2,12.5l388,54.8c1.5,0.3,2.8,1.3,3.6,2.7C581.6,558.4,581.1,560.1,580.3,561.8z"/>
	<path class="st1" d="M640.8,518c44.9,2.8,83.5,4.7,111.6-19c4.7-3.9,26.9-23.3,23.7-38c-2.1-9.9-16.3-8.8-60.5-29.1
		c-37.1-17.1-37.8-19-54-24.5c-27-9.2-40.4-13.9-46.5-14.2c-4.4,0-8.8-1.2-12.7-3.3c-5-3-6-6.1-11.4-10.7c-3.8-3.2-8.1-5.7-12.7-7.5
		c3.2-0.4,5.7-2.5,6.1-5.1c0.2-1.5-0.2-2.9-1-4.1c-2.2,0.6-4.4,0.9-6.7,1.1c-5.1,0.3-10.2-0.5-15-2.1c-9.4-2.8-17-5.1-25.4-5.8
		c-6.9-0.6-13.2-1.2-19.7,2c-3.5,1.8-6.9,3.9-10.1,6.3c-3.7,2.8-6.2,5.5-10.4,6.1c-0.8,0.1-1.7,0.2-3.4,0.5c-2.8,0.6-5,1.1-6.4,2.9
		c-0.7,0.9-1.1,2-1.4,3.1c-0.4,1.8,0,2.4,0.3,5.8s-0.1,4.3,0.7,5.2c1,1.1,2.7,1.1,3.8,0.9c-0.2,1.8-0.2,3.6-0.1,5.3
		c0.3,3.9,1.3,7.7,3,11.2c-1.3-5.3-0.9-11,1.3-16.1c2.6,0.5,5.1,1.2,7.5,2.1c6.7,2.5,14.3,5.3,16.7,12.2c2.4,7.4-1.2,15.5-8.3,18.7
		c-1.7-1.9-3-4.1-3.8-6.5c-0.1,2.6,0.4,5.2,1.5,7.6c-1.1,0.2-2,0.8-2.7,1.6c-0.2,0.3-0.4,0.6-0.5,0.9c-0.2,0.6-0.4,1.7,0.5,3.8
		c0.8,1.7,1.8,4,3.9,5c2.4,1.1,3.7-0.6,7.8-0.9c4.4-0.3,15.8,0.3,19.1,4.1c11.4,13.2,24.6,27.9,31.4,44.4c3.6,8.7,6.7,17.7,9,26.9
		C597.4,513.5,619,516.6,640.8,518z"/>
	<g id="elephant">
		<path class="st2" d="M807.1,324.8c0,5.3-0.1,10.6-0.3,15.8c-0.1,3.5-0.3,7.1-0.5,10.6l-2.4,4l1.8,4.4
			c-4,47.1-16.3,93.1-36.3,135.9c-2.6-13.8-2.6-37.5,2.3-77.3c-10.6-1-33.5-4.7-54.7-22c-8.1-6.6-15.1-14.4-20.7-23.2
			c-17.6,1.7-27.4,1.2-37.1-0.1c-12.5-1.7-19.2-5-19.9-8.4c-0.5-2.3,0.7-6.3,2.5-8.4c5.5-6.2,9.1-4.7,14.5-7.8
			c4-2.3,9.3-6.9,13.3-16.7L647.3,346c-0.3-2-0.8-4-1.5-6c-9.8,2.8-19.7,4.9-29.8,6.1c-28.2,3.4-63,0.5-93.7-23.2
			c-11.4-9-22-18.9-31.7-29.6c-18.5-20.4-35-44.5-40.6-64.9c-0.7-2.5-1.2-5.1-1.5-7.6c-1.1-6.9-1.8-15.3-3.4-23.2
			c-1.7-8.5-4.2-16.6-8.8-21.9c-2.4-2.9-4.4-6-6-9.3c-2-4.1-4.7-9.6-2.7-12c2.5-2.9,10.5,0.4,12.7,1.3c5.8,2.5,10.8,6.4,14.7,11.4
			c0.5-1.6,2.5-7.7,6-8c3-0.3,5.6,3.8,7.3,6.7c4.2,7.2,7.8,16.8,11.5,27c2.2,6.1,4.4,12.5,6.8,18.6c3.9,10.2,8.1,19.9,13.1,27.1
			c10,14.3,23.9,19.8,41.3,26.7c5.5,2.3,11.2,4.2,17,5.8c6.8,1.9,13.7,3.1,20.7,3.8c5.2,0.5,10.5,0.6,15.7,0.4
			c1.5-0.1,2.9-0.2,4.4-0.3c6-0.6,11.9-1.8,17.6-3.6c5.9-1.8,11.5-4.4,16.8-7.7c11.2-7.1,18.3-16.1,25.7-24.3
			c2.2-2.5,4.5-4.9,6.9-7.2c7.6-7.5,17.4-12.4,27.9-14.1c7.8-1.4,23,1.8,53.3,8c6.8,1.4,12.9,2.7,18.5,3.9
			c13.4,2.9,23.6,5.5,32.4,8.9l0.2,0.8c0.7,3.2,1.3,6.4,2,9.6c0.2,1.1,0.4,2.1,0.6,3.2c0.2,0.9,0.3,1.9,0.5,2.8
			c0.1,0.7,0.2,1.3,0.3,2c0.2,1.1,0.4,2.1,0.5,3.2s0.4,2.4,0.6,3.6s0.3,2.3,0.5,3.4s0.3,2.3,0.5,3.4s0.3,2.2,0.4,3.3
			c0,0.1,0,0.1,0,0.2l1.3,12.2C806.5,298.8,807.1,311.7,807.1,324.8z"/>
		<path class="st1" d="M647.3,346c-2.5,0.6-16.4,3.6-31.3,0.2c-8.1-1.8-15.6-5.6-21.7-11.2c-16.1-14.8-16.1-36.7-16-53
			c0-2.5,0.1-5,0.3-7.4c1.1-13.8,4.7-27.2,10.7-39.6c-0.3,12.1,1,24.2,4,36c0.3,1.3,0.7,2.6,1,4c4.7,18.2,9.8,35.1,24,43
			c8.1,4.6,15.3,4,22,12c2.5,3,4.3,6.3,5.5,10C646.5,342,647,344,647.3,346z"/>
		<path class="st3" d="M805.3,285.9l-1.3-12.2c0-0.1,0-0.1,0-0.2c-0.1-1.1-0.3-2.2-0.4-3.3s-0.3-2.3-0.5-3.4s-0.3-2.3-0.5-3.4
			s-0.4-2.4-0.6-3.6s-0.3-2.1-0.5-3.2c-0.1-0.7-0.2-1.3-0.3-2c-0.2-0.9-0.3-1.9-0.5-2.8s-0.4-2.1-0.6-3.2c-0.6-3.2-1.3-6.4-2-9.6
			l-0.2-0.8c-0.2-0.8-0.3-1.6-0.5-2.3c-0.7-3-1.4-5.9-2.1-8.8c-6.9-3.1-15.2-5.2-22.9-2.1c-2.5,1-4.9,2.5-6.8,4.4
			c-11.7,11.1-13.1,34.9-12.2,47.6c0.4,5.2,2.9,41.5,32.6,60.6c6.2,4.2,13.3,7.1,20.7,8.5c0.2-5.3,0.5-16.1,0.5-21.4
			C807.1,311.7,806.5,298.7,805.3,285.9z"/>
	</g>
	<path id="camel" class="st4" d="M509.3,46.1c-0.1-0.4-0.3-0.8-0.6-0.8s-0.4,0.5-0.7,0.8c-0.7,1-2,0.3-3.5,1
		c-0.9,0.4-1.6,1.3-1.9,2.3c-0.2,1.2,0.3,2.7,1.1,2.8c0.5,0.1,0.8-0.5,1.6-0.9c1.1-0.6,2.9-0.9,3.7-0.4c2,1.3-1.4,7.1,1.4,10.8
		c0.5,1,1.4,1.7,2.5,2c2.5,0.6,4.8-2.2,5-2.3c0,0.6,0.3,1.1,0.7,1.6c0.3,0.3,0.6,0.5,1,0.6c-1.3,4.3-2.2,7.1-2.5,8
		c-0.1,0.2-0.2,0.5-0.2,0.8c0,0.6,0.2,1.2,0.6,1.6c1.3,1.8,2.3,5.5,2.5,7.8c0.1,0.5,0.1,1,0.1,1.5l1.8-0.9c-1.1-3.1-2-6.2-2.7-9.4
		c-0.1-0.3-0.1-0.6-0.2-1c-0.2-1.3,1.9-5,3.5-6.7c1.2,6.1,1.2,7.1,1.1,7.7c-0.1,0.5,0,1.1,0.1,1.6c0.1,0.2,0.2,0.4,0.3,0.7
		c0.7,1.1,2.8,6.3,1.1,9c-0.2,0.3-0.5,0.7-0.3,1c0.5,0.5,1.4,0.5,1.9,0c0.3-0.4,0.4-0.8,0.3-1.3c-0.1-4,0.3-1.8,0-3.9
		c-0.6-3.5-1-4.2-1.2-6.2c-0.4-2.3-0.3-4.7,0.3-7c0.5-1.7,1-3.5,1.6-5.2c2.1,1.5,4.6,2.2,7.1,2.2c1.7,0,3.4-0.5,5-1.2
		c2.3,2.1,3.8,5,4.2,8.1c0.1,0.8,0.1,1.6,0,2.3c-0.3,4.9-3.3,10.1-4.8,11.6c-0.1,0.1-0.5,0.4-0.4,0.7c0.1,0.4,1.3,0.6,2.1,0.1
		c0.3-0.2,0.5-0.5,0.6-0.8c0.8-2.2,4.3-9.4,5.5-10.5c0.2-0.2,0.3-0.4,0.4-0.7c0-0.4-0.1-0.8-0.3-1.1c-0.4-0.5-0.7-1.9-0.8-5.7
		c1.2,1.5,2.2,3.3,2.8,5.2c0.3,1.1,0.6,2.2,0.7,3.4c0.3,2.6,1.1,7.2-0.2,9c-0.1,0.2-0.5,0.6-0.3,1s0.8,0.5,1.2,0.5
		c0.4-0.1,0.8-0.3,1-0.6c1.4-1.6,0.9-7.2,0.3-11.6c-0.1-0.8-0.2-1.3-0.2-1.5c-0.6-4.2-1.8-6.5-3.5-12.5c-0.2-0.5-0.3-1.1-0.4-1.6
		c0.6,2.3,1.5,4.6,2.7,6.7c0.5,0.8,0.9,1.5,1.2,1.9c0.2-0.8,0.2-1.6,0.1-2.4c-0.2-0.9-0.5-1.7-1-2.5c-1.6-2.5-0.8-3.6-2.6-7.7
		c-0.5-1.4-1.5-2.6-2.7-3.5c-2.3-1.7-4.1,0-6.3-1.6c-2-1.4-1.3-4.6-3-5c-0.5-0.1-1,0.1-1.4,0.3c-1.6,1-0.9,3.5-2.3,4.2
		c-0.5,0.2-1,0.3-1.5,0.1c-1.7-0.5-1.3-3.1-3.5-4.3c-0.5-0.4-1.1-0.5-1.8-0.4c-1.4,0.5-0.8,3.2-2.5,4.6c-1.2,0.9-2.4,1-3.1,2
		c-2,2.8-2.7,7.3-4.4,7.7c-1.1,0.3-1.5-1.5-2.3-3.1c-0.8-2-1.4-4-1.9-6c-0.1-1-0.6-1.9-1.3-2.5C509.9,46.3,509.7,46.2,509.3,46.1z"
		/>
	<path id="arabic" class="st4" d="M488.5,49.7c0-0.2,0.2-0.4,0.3-0.5c0.2-0.2,0.5-0.4,0.8-0.4c0.4-0.1,0.9-0.2,1.3-0.1
		c0.5,0,1.1,0.1,1.5,0.3c0.1,0,0.1,0.1,0.2,0.2c0.1,0.2-0.1,0.4,0,0.5s0.1,0,0.2,0.1c0,0.1,0,0.2,0,0.2c0,0-0.1,0.1-0.1,0.1
		c1,1.6,2.4,2.9,3.9,4l-2.1,1.9c1.5,7.9,4.9,15.2,9.8,21.6L499,80c0.5,1.2,1.1,2.5,1.6,3.7l-3,0.2c-0.4-1.1-0.7-2.2-1.1-3.3
		c-1.5,0.6-3.2,0.8-4.8,0.5l-0.2,2.7l-2.3,0.1l0.3-3l-1.3,0c-0.1-4.5,0-9.3,0.2-14.2c0.2-4.7,0.5-9.3,0.8-13.6
		c-0.2,0.1-0.3,0.1-0.5,0c-0.3-0.2-0.3-0.7-0.3-1.2c0-0.6,0.1-1.1,0.2-1.7C488.6,50.2,488.5,49.9,488.5,49.7z"/>
	<path class="st1" d="M413.8,488c-2.1-0.3-4.3-0.1-6.3,0.7c-10.7-9.7-31.9-16.8-57.3-18.5c0-0.1,0-0.3,0-0.4
		c-0.2-6.4-5.5-11.4-11.9-11.2c-6.1,0.2-11.1,5.1-11.2,11.2c0,0.1,0,0.3,0,0.4c-36.6,2.4-64.7,16.2-64.7,32.8c0,1.2,0.2,2.5,0.5,3.6
		c1,3.5,2.9,6.8,5.6,9.3l2,16.9c-7.8,1-13.1-1.3-16.6-3.8c-6.6-4.7-11-12.9-20.9-19.5c-1.8-1.2-4-2.5-6.7-1.9
		c-2.5,0.6-2.8,2.3-8,6.9c-3.8,3.3-4.9,3.6-5.3,5.7c-0.5,3,0.5,6,2.7,8.2c2.2,1.9,4.8,0.9,5.8,0.6c6.7-1.9,12.8,8.9,24.4,20.8
		c7.8,7.9,15.3,15.4,25.7,17c0.8,0.1,1.8,0.3,2.9,0.3l0.6,5.1c0,10.7,28.5,19.4,63.6,19.4s63.6-8.7,63.6-19.4l4.4-36.9
		c9,1.1,17.8-8.2,19.9-21.1C428.5,501.2,422.8,489.4,413.8,488z M418.9,513.1c-1.3,8.1-6.4,14.1-11.3,13.3l1.2-10.5
		c2.7-2.6,4.6-5.8,5.6-9.3c0.3-1.2,0.5-2.4,0.5-3.6c0-1.9-0.4-3.8-1.1-5.6C417.8,499.3,420.1,505.8,418.9,513.1L418.9,513.1z"/>
	<g id="cup_further">
		<path class="st1" d="M210.8,553.2c0-6.8-12.2-12.2-27.3-12.2s-27.3,5.5-27.3,12.2c-1.1,13.4-0.4,26.8,2,40c0.5,2.7,1,5.3,1.6,7.9
			c0,6.8,10.6,12.2,23.7,12.2s23.7-5.5,23.7-12.2c0.5-2.5,1-5.1,1.4-7.7C210.7,580.1,211.4,566.6,210.8,553.2z"/>
		<path class="st5" d="M206.8,555.8c-4.8,3.5-13.4,5.9-23.3,5.9c-10.1,0-18.8-2.4-23.6-6.1c1-4.6,11.1-8.2,23.4-8.2
			C195.6,547.4,206,551.1,206.8,555.8z"/>
	</g>
	<g id="cup_closer">
		<path class="st1" d="M245.8,574.5c0-7.1-12.8-12.8-28.5-12.8s-28.5,5.7-28.5,12.8c-1.1,14-0.4,28,2.1,41.8
			c0.5,2.8,1.1,5.6,1.7,8.2c0,7.1,11.1,12.8,24.7,12.8s24.7-5.7,24.7-12.8c0.5-2.6,1-5.3,1.5-8.1
			C245.7,602.5,246.5,588.5,245.8,574.5z"/>
		<path class="st5" d="M240.2,580.6c-5.2,3.2-13.6,5.2-23,5.2s-18-2.1-23.1-5.3c3.5-3.5,12.5-6,23-6S236.8,577,240.2,580.6z"/>
	</g>
	<g id="red_lantern">
		<path class="st4" d="M654.3,684.5l-2.2-2c5.9-6.6,11.1-13.9,15.5-21.6c7.5-13.3,10.6-25.2,14.3-39.1c1.9-7.2,3.5-14.6,4.8-21.9
			l3,0.5c-1.3,7.4-3,14.8-4.9,22.1c-3.7,14-6.9,26.1-14.5,39.8C665.7,670.2,660.3,677.7,654.3,684.5z"/>
		<path class="st4" d="M656,702.7c-1.1-14.3-0.4-28.7,2.1-42.9c0.9-4.8,1.8-8.5,2.9-13.2c1.1-4.5,2.3-9.5,4-17.2
			c2.1-9.9,3.9-20,5.5-29.9l3,0.5c-1.5,10-3.4,20.1-5.5,30.1c-1.6,7.7-2.9,12.8-4,17.3s-2,8.3-2.9,13c-2.5,13.9-3.1,28-2,42.1
			L656,702.7z"/>
		<path class="st4" d="M612.5,706.4l-2.9-0.8c1.7-6,3.8-11.9,6.2-17.6c5.9-13.7,12.2-22.4,18.3-30.8c3.5-4.8,6.8-9.3,10-14.7
			c7.4-12.6,12.4-26.5,14.5-41l3,0.5c-2.3,14.8-7.3,29.1-14.9,42.1c-3.3,5.5-6.7,10.3-10.1,14.9c-6,8.3-12.2,16.9-18,30.3
			C616.2,694.8,614.2,700.5,612.5,706.4z"/>
		<path class="st4" d="M560.3,711.4l-1.6-2.6c11.9-7.2,23.2-15.2,34-23.9c14.5-11.7,27-21.8,37.3-37c9.7-14.2,15.8-30.6,17.9-47.7
			l3,0.4c-2.1,17.6-8.4,34.4-18.3,49c-10.6,15.6-23.3,25.8-37.9,37.6C583.8,696,572.3,704.1,560.3,711.4z"/>
		<path class="st4" d="M627.8,727.6l-2.7-1.3c3.6-7.3,6.8-14.8,9.6-22.5c2.7-7.3,4.9-14.8,6.6-22.3c1.6-6.9,2.9-12.4,7.4-20.3
			c2.7-4.9,6-9.4,9.9-13.4c3.7-3.8,6.9-8.1,9.4-12.8c5.5-10.1,8.6-21.2,9.2-32.6l3,0.2c-0.6,11.9-3.9,23.4-9.5,33.9
			c-2.6,4.9-5.9,9.4-9.9,13.4c-3.7,3.8-6.9,8.1-9.5,12.8c-4.3,7.6-5.5,12.6-7.1,19.6c-1.7,7.7-4,15.3-6.7,22.7
			C634.8,712.5,631.5,720.2,627.8,727.6z"/>
		<path class="st4" d="M612.1,726.6l-2.9-0.8c4.1-14.9,9.9-29.3,17.3-42.9c4.5-8.3,8.6-14.3,12.5-20.1c5-7.4,9.7-14.3,14.3-24.7
			c5.2-11.6,8.8-23.9,10.6-36.5l3,0.4c-1.8,12.9-5.5,25.4-10.8,37.3c-4.8,10.6-9.5,17.7-14.6,25.2c-3.9,5.7-7.9,11.7-12.4,19.8
			C621.9,697.7,616.1,711.9,612.1,726.6z"/>
		<path class="st4" d="M578,729.8l-2.5-1.7c7.7-10.9,15.8-21.9,24-32.6c6.6-8.6,12-15.4,16.8-21.4c12.2-15.2,18.8-23.6,25.3-37.2
			c5.4-11.4,9.2-23.5,11.3-36l3,0.5c-2.1,12.7-6,25.1-11.5,36.8c-6.7,13.9-13.9,22.9-25.7,37.8c-4.8,6-10.2,12.8-16.8,21.4
			C593.8,708,585.7,718.9,578,729.8z"/>
		<path class="st4" d="M654.2,672.6l-2.2-2c12.4-13.9,20.9-29.3,25.3-45.9c2-7.6,3.2-15.4,3.5-23.3l3,0.1c-0.3,8.1-1.5,16.2-3.6,24
			C675.6,642.5,666.8,658.4,654.2,672.6z"/>
		<path class="st4" d="M582.1,687.9l-0.7-2.9c12.2-2.7,23.9-7.3,34.7-13.7c17.7-10.7,26.2-23.2,33-33.2c7.7-11.3,13.5-23.8,17.2-37
			l2.9,0.8c-3.7,13.5-9.7,26.3-17.6,37.9c-7,10.3-15.7,23.1-33.9,34.1C606.7,680.4,594.7,685.2,582.1,687.9z"/>
		<path class="st4" d="M588.5,702.4l-2.7-1.3c7.7-15.3,16.3-30,25.9-44.2c1.5-2.2,2.9-4.2,4.2-6.1c4-5.6,7.8-11.4,11.1-17.5
			c6.1-11,10.8-22.7,14.1-34.8l2.9,0.8c-3.3,12.3-8.2,24.3-14.4,35.4c-3.4,6.1-7.2,12-11.3,17.7c-1.3,1.9-2.7,3.9-4.2,6.1
			C604.7,672.6,596.2,687.2,588.5,702.4z"/>
		<path class="st4" d="M579,692.8l-1.6-2.6c20-12.2,36.1-27.4,47.8-45.3c9.2-13.9,15.6-29.6,18.6-46l3,0.5
			c-3.1,16.8-9.7,32.8-19.1,47.1C615.8,664.9,599.4,680.4,579,692.8z"/>
		<path class="st4" d="M573.4,687.5l-2-2.3c6.2-5.3,12.2-10.9,18-16.5c8.5-8.3,14.9-15.3,16.6-17.3c13.6-15.7,19.7-40,22.4-57.6
			l3,0.5c-2.8,18-9,42.9-23.1,59.1c-1.8,2-8.2,9.2-16.8,17.5C585.8,676.5,579.7,682.2,573.4,687.5z"/>
		<path class="st4" d="M583.9,665.7l-1.2-2.7c12.1-5.3,28.9-15.3,40.4-32.7c6.8-10.3,10.8-22.1,11.6-34.4l3,0.2
			c-0.9,12.8-5.1,25.1-12.2,35.8C613.8,649.9,596.4,660.2,583.9,665.7z"/>
		<path class="st4" d="M600.4,645.6l-2.2-2.1c6-6.1,11.1-13,15.2-20.5c5-9,8.3-18.9,9.7-29.2l3,0.4c-1.5,10.6-4.9,20.8-10,30.2
			C611.9,632.2,606.6,639.3,600.4,645.6z"/>
		<path class="st4" d="M636.8,688.1l-2.9-0.9c5-16.7,12.4-31.2,21.9-43.4l0.9-1.2c3.8-4.7,9.4-11.9,13.2-22.7
			c2.1-5.9,3.3-12.1,3.6-18.4l3,0.2c-0.3,6.6-1.6,13.1-3.8,19.3c-4,11.3-10.1,19-13.7,23.6l-0.9,1.2
			C648.8,657.5,641.7,671.8,636.8,688.1z"/>
		
			<ellipse transform="matrix(0.1578 -0.9875 0.9875 0.1578 -21.4878 1140.1069)" class="st1" cx="657.6" cy="582.7" rx="23.3" ry="46.5"/>
		
			<ellipse transform="matrix(0.1578 -0.9875 0.9875 0.1578 56.952 1092.2758)" class="st4" cx="668.8" cy="512.7" rx="86.5" ry="109.6"/>
		
			<ellipse transform="matrix(0.1578 -0.9875 0.9875 0.1578 122.7819 1050.5228)" class="st1" cx="677.3" cy="453.3" rx="23.3" ry="46.5"/>
		<path class="st6" d="M678.3,449c4.6-4,13.2-12.7,17.3-25.9c2.9-9.1,3.1-18.8,0.7-28"/>
	</g>
	<g id="yellow_lantern">
		<path class="st5" d="M540.4,754.2l-3-0.1c0.8-6.7,1.9-13.4,3.4-20c1.6-6.9,3.2-12.1,4.7-16.7c2-6.5,3.8-12,4.7-19.9
			c0.7-5.6,0.8-11.3,0.4-17l3-0.2c0.4,5.8,0.3,11.6-0.4,17.3c-1,8.1-2.7,13.7-4.8,20.3c-1.4,4.6-3.1,9.8-4.6,16.5
			C542.3,741,541.1,747.6,540.4,754.2z"/>
		<path class="st5" d="M514.1,788.2l-2.6-1.1c9.1-12.9,15.5-26,19.1-39c0.6-2.1,1.1-4.3,1.4-6.5c0.5-2.8,1.3-7,3.4-16.5
			c1.2-5.2,2.2-9.4,3.2-13.5c1.3-5.2,2.6-10.6,4.3-18.4c1-4.8,2.1-9.5,3-14.3l3,0.3c-1,4.7-2,9.5-3,14.3c-1.7,7.8-3,13.2-4.3,18.5
			c-1,4.1-2,8.3-3.2,13.5c-2.1,9.4-2.9,13.6-3.4,16.4c-0.4,2.3-0.9,4.5-1.5,6.7C529.9,761.7,523.4,775.1,514.1,788.2z"/>
		<path class="st5" d="M515.6,749.8c-1.2-12.5,1.2-23.4,7.3-32.5c1.5-2.3,3.2-4.3,4.8-6.3c3.4-4.2,6.7-8.1,8.7-14.4
			c1.8-5.4,2.2-11.2,1.3-16.8l3-0.4c1,5.9,0.6,12-1.3,17.8c-2.2,6.6-5.7,10.9-9.1,15.1c-1.6,1.9-3.2,3.9-4.7,6.1
			c-5.8,8.7-8.2,19.1-7,31.1L515.6,749.8z"/>
		<path class="st5" d="M526.8,780.5h-3c0.7-20.5,1.9-41.2,3.4-61.7c1-12.5,2.1-25.3,3.3-37.9l3,0.1c-1.3,12.5-2.4,25.3-3.3,37.8
			C528.6,739.4,527.5,760.1,526.8,780.5z"/>
		<path class="st5" d="M489.4,764l-2.6-1.1c4-5.6,7.9-11.4,11.6-17.3c8-12.6,13.3-21,17.5-31.1c4.1-10.2,6.6-21,7.4-32h3
			c-0.7,11.2-3.3,22.2-7.5,32.6c-4.2,10.3-9.5,18.8-17.6,31.5C497.4,752.5,493.4,758.3,489.4,764z"/>
		<path class="st5" d="M515.5,767.9l-2.7-1c9.6-15.4,16.2-32.5,19.5-50.4c2-11.3,2.5-22.8,1.6-34.3l3-0.3c1,11.6,0.5,23.3-1.6,34.8
			C532,734.9,525.3,752.2,515.5,767.9z"/>
		<path class="st5" d="M506.6,746.5l-3-0.1c0.7-8.1,1.9-16.2,3.4-24.2c2.8-14.4,6.8-28.5,12.1-42.1l2.9,0.6
			c-5.2,13.6-9.2,27.5-12,41.8C508.5,730.4,507.3,738.4,506.6,746.5z"/>
		<path class="st5" d="M506,765.4l-2.8-0.8c8.1-17.2,14.3-35.2,18.7-53.7c2.4-10.1,4.1-20.4,5.2-30.7l3,0.1
			c-1.1,10.4-2.9,20.8-5.2,31C520.5,729.9,514.2,748.1,506,765.4z"/>
		<path class="st5" d="M500.8,740.6h-3c0.5-8.6,1.6-17.1,3.3-25.6c2.4-11.9,6-23.6,10.6-34.9l2.8,0.7c-4.6,11.2-8.1,22.7-10.5,34.5
			C502.4,723.6,501.3,732.1,500.8,740.6z"/>
		<path class="st5" d="M489,753.8l-2.7-0.9c7.2-13,13.4-26.4,18.8-40.3c4.1-10.6,7.5-21.5,10.4-32.5l2.9,0.4
			c-2.9,11.1-6.4,22-10.5,32.7C502.5,727.2,496.2,740.8,489,753.8z"/>
		<path class="st5" d="M489.4,720.3l-2.2-1.5c4.4-3.9,8.2-8.4,11.4-13.4c4.9-7.7,7.7-16.6,8-25.7h3c-0.3,9.5-3.2,18.7-8.3,26.7
			C497.9,711.5,493.9,716.2,489.4,720.3z"/>
		<path class="st5" d="M560.5,769.8c-14.3-36.6-16.6-58.4-7-66.8c0.7-0.6,1.5-1.2,2.4-1.8c3-2.2,6.8-5,7-8.8c0.2-3.1-2-6.4-6.4-9.8
			l1.9-2.4c5.2,4.1,7.8,8.3,7.6,12.4c-0.3,5.2-4.9,8.6-8.3,11.1c-0.8,0.6-1.6,1.2-2.2,1.7c-8.4,7.3-5.8,28.7,7.8,63.4L560.5,769.8z"
			/>
		<path class="st5" d="M560.6,739l-2.8-1.1c8.3-20.2,11.7-42,9.9-63.7l3-0.3C572.5,696.1,569,718.4,560.6,739z"/>
		<path class="st5" d="M564,731.2l-1.3-2.7c13-6.5,21.4-19.1,21.3-32.2c-0.1-9.1-7.5-15.5-11.4-18.9c-0.8-0.7-1.6-1.4-2.3-2.1l2.3-2
			c0.6,0.6,1.3,1.3,2,1.8c4.3,3.8,12.4,10.8,12.5,21.2C587.1,710.4,578,724.1,564,731.2z"/>
		
			<ellipse transform="matrix(0.9968 -8.002496e-02 8.002496e-02 0.9968 -51.3164 45.2672)" class="st2" cx="539.1" cy="662.9" rx="46.5" ry="23.3"/>
		
			<ellipse transform="matrix(0.9968 -8.002496e-02 8.002496e-02 0.9968 -45.6557 44.5834)" class="st5" cx="533.4" cy="591.9" rx="109.6" ry="86.5"/>
		
			<ellipse transform="matrix(0.9968 -8.002496e-02 8.002496e-02 0.9968 -40.4406 43.8122)" class="st2" cx="526.4" cy="526.4" rx="46.5" ry="23.3"/>
		<path class="st7" d="M527,522.3c-2.5-6.5-11.2-37.7,0.3-56.8"/>
	</g>
	<path class="st0" d="M428.8,65.2c-5-13.3-12.9-26.6-25.4-28c-6.1-0.7-17.1,1.7-19,13.3c-2,12.5,16,26.8,18.6,29
		c10.4,9,14.6,12.6,24.3,22.4c5.7,5.9,9.9,13.2,12,21.2C440.5,94.7,433.1,76.6,428.8,65.2z M415.9,61.9c-1.7,1.9-13-2.4-16.5-6.2
		c-0.9-0.9-4.1-3.9-3-6.3c1-2,3.2-3.3,5.5-3.2c3.8,0.4,7.2,1.8,8.5,3.1C411.1,50.2,417.4,60.1,415.9,61.9L415.9,61.9z"/>
	<path class="st0" d="M454.4,137c-0.3-9,1.1-18,4.1-26.4c2-6.1,5-12.1,9.8-12.6c2.3-0.3,6.6,1,7.3,6.3c0.8,5.8-6.2,12.1-7.2,13.1
		c-3.3,3.2-6.4,6.5-9.4,10C456.8,130.2,455.2,133.5,454.4,137z"/>
</g>
</svg>
